<?xml version="1.0" encoding="utf-8" standalone="no"?>
<!DOCTYPE svg PUBLIC "-//W3C//DTD SVG 1.1//EN"
  "http://www.w3.org/Graphics/SVG/1.1/DTD/svg11.dtd">
<!-- Created with matplotlib (https://matplotlib.org/) -->
<svg height="216pt" version="1.1" viewBox="0 0 864 216" width="864pt" xmlns="http://www.w3.org/2000/svg" xmlns:xlink="http://www.w3.org/1999/xlink">
 <metadata>
  <rdf:RDF xmlns:cc="http://creativecommons.org/ns#" xmlns:dc="http://purl.org/dc/elements/1.1/" xmlns:rdf="http://www.w3.org/1999/02/22-rdf-syntax-ns#">
   <cc:Work>
    <dc:type rdf:resource="http://purl.org/dc/dcmitype/StillImage"/>
    <dc:date>2020-09-23T02:05:26.126802</dc:date>
    <dc:format>image/svg+xml</dc:format>
    <dc:creator>
     <cc:Agent>
      <dc:title>Matplotlib v3.3.1, https://matplotlib.org/</dc:title>
     </cc:Agent>
    </dc:creator>
   </cc:Work>
  </rdf:RDF>
 </metadata>
 <defs>
  <style type="text/css">*{stroke-linecap:butt;stroke-linejoin:round;}</style>
 </defs>
 <g id="figure_1">
  <g id="patch_1">
   <path d="M 0 216 
L 864 216 
L 864 0 
L 0 0 
z
" style="fill:none;"/>
  </g>
  <g id="axes_1">
   <g id="patch_2">
    <path d="M 108 189 
L 643.68 189 
L 643.68 25.92 
L 108 25.92 
z
" style="fill:#ffffff;"/>
   </g>
   <g id="matplotlib.axis_1">
    <g id="xtick_1">
     <g id="line2d_1">
      <defs>
       <path d="M 0 0 
L 0 3.5 
" id="m7f2cee9a8f" style="stroke:#000000;stroke-width:0.8;"/>
      </defs>
      <g>
       <use style="stroke:#000000;stroke-width:0.8;" x="144.677745" xlink:href="#m7f2cee9a8f" y="189"/>
      </g>
     </g>
     <g id="text_1">
      <!-- clean -->
      <g transform="translate(148.816807 236.342969)rotate(-90)scale(0.15 -0.15)">
       <defs>
        <path d="M 48.78125 52.59375 
L 48.78125 44.1875 
Q 44.96875 46.296875 41.140625 47.34375 
Q 37.3125 48.390625 33.40625 48.390625 
Q 24.65625 48.390625 19.8125 42.84375 
Q 14.984375 37.3125 14.984375 27.296875 
Q 14.984375 17.28125 19.8125 11.734375 
Q 24.65625 6.203125 33.40625 6.203125 
Q 37.3125 6.203125 41.140625 7.25 
Q 44.96875 8.296875 48.78125 10.40625 
L 48.78125 2.09375 
Q 45.015625 0.34375 40.984375 -0.53125 
Q 36.96875 -1.421875 32.421875 -1.421875 
Q 20.0625 -1.421875 12.78125 6.34375 
Q 5.515625 14.109375 5.515625 27.296875 
Q 5.515625 40.671875 12.859375 48.328125 
Q 20.21875 56 33.015625 56 
Q 37.15625 56 41.109375 55.140625 
Q 45.0625 54.296875 48.78125 52.59375 
z
" id="DejaVuSans-99"/>
        <path d="M 9.421875 75.984375 
L 18.40625 75.984375 
L 18.40625 0 
L 9.421875 0 
z
" id="DejaVuSans-108"/>
        <path d="M 56.203125 29.59375 
L 56.203125 25.203125 
L 14.890625 25.203125 
Q 15.484375 15.921875 20.484375 11.0625 
Q 25.484375 6.203125 34.421875 6.203125 
Q 39.59375 6.203125 44.453125 7.46875 
Q 49.3125 8.734375 54.109375 11.28125 
L 54.109375 2.78125 
Q 49.265625 0.734375 44.1875 -0.34375 
Q 39.109375 -1.421875 33.890625 -1.421875 
Q 20.796875 -1.421875 13.15625 6.1875 
Q 5.515625 13.8125 5.515625 26.8125 
Q 5.515625 40.234375 12.765625 48.109375 
Q 20.015625 56 32.328125 56 
Q 43.359375 56 49.78125 48.890625 
Q 56.203125 41.796875 56.203125 29.59375 
z
M 47.21875 32.234375 
Q 47.125 39.59375 43.09375 43.984375 
Q 39.0625 48.390625 32.421875 48.390625 
Q 24.90625 48.390625 20.390625 44.140625 
Q 15.875 39.890625 15.1875 32.171875 
z
" id="DejaVuSans-101"/>
        <path d="M 34.28125 27.484375 
Q 23.390625 27.484375 19.1875 25 
Q 14.984375 22.515625 14.984375 16.5 
Q 14.984375 11.71875 18.140625 8.90625 
Q 21.296875 6.109375 26.703125 6.109375 
Q 34.1875 6.109375 38.703125 11.40625 
Q 43.21875 16.703125 43.21875 25.484375 
L 43.21875 27.484375 
z
M 52.203125 31.203125 
L 52.203125 0 
L 43.21875 0 
L 43.21875 8.296875 
Q 40.140625 3.328125 35.546875 0.953125 
Q 30.953125 -1.421875 24.3125 -1.421875 
Q 15.921875 -1.421875 10.953125 3.296875 
Q 6 8.015625 6 15.921875 
Q 6 25.140625 12.171875 29.828125 
Q 18.359375 34.515625 30.609375 34.515625 
L 43.21875 34.515625 
L 43.21875 35.40625 
Q 43.21875 41.609375 39.140625 45 
Q 35.0625 48.390625 27.6875 48.390625 
Q 23 48.390625 18.546875 47.265625 
Q 14.109375 46.140625 10.015625 43.890625 
L 10.015625 52.203125 
Q 14.9375 54.109375 19.578125 55.046875 
Q 24.21875 56 28.609375 56 
Q 40.484375 56 46.34375 49.84375 
Q 52.203125 43.703125 52.203125 31.203125 
z
" id="DejaVuSans-97"/>
        <path d="M 54.890625 33.015625 
L 54.890625 0 
L 45.90625 0 
L 45.90625 32.71875 
Q 45.90625 40.484375 42.875 44.328125 
Q 39.84375 48.1875 33.796875 48.1875 
Q 26.515625 48.1875 22.3125 43.546875 
Q 18.109375 38.921875 18.109375 30.90625 
L 18.109375 0 
L 9.078125 0 
L 9.078125 54.6875 
L 18.109375 54.6875 
L 18.109375 46.1875 
Q 21.34375 51.125 25.703125 53.5625 
Q 30.078125 56 35.796875 56 
Q 45.21875 56 50.046875 50.171875 
Q 54.890625 44.34375 54.890625 33.015625 
z
" id="DejaVuSans-110"/>
       </defs>
       <use xlink:href="#DejaVuSans-99"/>
       <use x="54.980469" xlink:href="#DejaVuSans-108"/>
       <use x="82.763672" xlink:href="#DejaVuSans-101"/>
       <use x="144.287109" xlink:href="#DejaVuSans-97"/>
       <use x="205.566406" xlink:href="#DejaVuSans-110"/>
      </g>
     </g>
    </g>
    <g id="xtick_2">
     <g id="line2d_2">
      <g>
       <use style="stroke:#000000;stroke-width:0.8;" x="175.499379" xlink:href="#m7f2cee9a8f" y="189"/>
      </g>
     </g>
     <g id="text_2">
      <!-- gaussian_noise -->
      <g transform="translate(179.429847 310.110156)rotate(-90)scale(0.15 -0.15)">
       <defs>
        <path d="M 45.40625 27.984375 
Q 45.40625 37.75 41.375 43.109375 
Q 37.359375 48.484375 30.078125 48.484375 
Q 22.859375 48.484375 18.828125 43.109375 
Q 14.796875 37.75 14.796875 27.984375 
Q 14.796875 18.265625 18.828125 12.890625 
Q 22.859375 7.515625 30.078125 7.515625 
Q 37.359375 7.515625 41.375 12.890625 
Q 45.40625 18.265625 45.40625 27.984375 
z
M 54.390625 6.78125 
Q 54.390625 -7.171875 48.1875 -13.984375 
Q 42 -20.796875 29.203125 -20.796875 
Q 24.46875 -20.796875 20.265625 -20.09375 
Q 16.0625 -19.390625 12.109375 -17.921875 
L 12.109375 -9.1875 
Q 16.0625 -11.328125 19.921875 -12.34375 
Q 23.78125 -13.375 27.78125 -13.375 
Q 36.625 -13.375 41.015625 -8.765625 
Q 45.40625 -4.15625 45.40625 5.171875 
L 45.40625 9.625 
Q 42.625 4.78125 38.28125 2.390625 
Q 33.9375 0 27.875 0 
Q 17.828125 0 11.671875 7.65625 
Q 5.515625 15.328125 5.515625 27.984375 
Q 5.515625 40.671875 11.671875 48.328125 
Q 17.828125 56 27.875 56 
Q 33.9375 56 38.28125 53.609375 
Q 42.625 51.21875 45.40625 46.390625 
L 45.40625 54.6875 
L 54.390625 54.6875 
z
" id="DejaVuSans-103"/>
        <path d="M 8.5 21.578125 
L 8.5 54.6875 
L 17.484375 54.6875 
L 17.484375 21.921875 
Q 17.484375 14.15625 20.5 10.265625 
Q 23.53125 6.390625 29.59375 6.390625 
Q 36.859375 6.390625 41.078125 11.03125 
Q 45.3125 15.671875 45.3125 23.6875 
L 45.3125 54.6875 
L 54.296875 54.6875 
L 54.296875 0 
L 45.3125 0 
L 45.3125 8.40625 
Q 42.046875 3.421875 37.71875 1 
Q 33.40625 -1.421875 27.6875 -1.421875 
Q 18.265625 -1.421875 13.375 4.4375 
Q 8.5 10.296875 8.5 21.578125 
z
M 31.109375 56 
z
" id="DejaVuSans-117"/>
        <path d="M 44.28125 53.078125 
L 44.28125 44.578125 
Q 40.484375 46.53125 36.375 47.5 
Q 32.28125 48.484375 27.875 48.484375 
Q 21.1875 48.484375 17.84375 46.4375 
Q 14.5 44.390625 14.5 40.28125 
Q 14.5 37.15625 16.890625 35.375 
Q 19.28125 33.59375 26.515625 31.984375 
L 29.59375 31.296875 
Q 39.15625 29.25 43.1875 25.515625 
Q 47.21875 21.78125 47.21875 15.09375 
Q 47.21875 7.46875 41.1875 3.015625 
Q 35.15625 -1.421875 24.609375 -1.421875 
Q 20.21875 -1.421875 15.453125 -0.5625 
Q 10.6875 0.296875 5.421875 2 
L 5.421875 11.28125 
Q 10.40625 8.6875 15.234375 7.390625 
Q 20.0625 6.109375 24.8125 6.109375 
Q 31.15625 6.109375 34.5625 8.28125 
Q 37.984375 10.453125 37.984375 14.40625 
Q 37.984375 18.0625 35.515625 20.015625 
Q 33.0625 21.96875 24.703125 23.78125 
L 21.578125 24.515625 
Q 13.234375 26.265625 9.515625 29.90625 
Q 5.8125 33.546875 5.8125 39.890625 
Q 5.8125 47.609375 11.28125 51.796875 
Q 16.75 56 26.8125 56 
Q 31.78125 56 36.171875 55.265625 
Q 40.578125 54.546875 44.28125 53.078125 
z
" id="DejaVuSans-115"/>
        <path d="M 9.421875 54.6875 
L 18.40625 54.6875 
L 18.40625 0 
L 9.421875 0 
z
M 9.421875 75.984375 
L 18.40625 75.984375 
L 18.40625 64.59375 
L 9.421875 64.59375 
z
" id="DejaVuSans-105"/>
        <path d="M 50.984375 -16.609375 
L 50.984375 -23.578125 
L -0.984375 -23.578125 
L -0.984375 -16.609375 
z
" id="DejaVuSans-95"/>
        <path d="M 30.609375 48.390625 
Q 23.390625 48.390625 19.1875 42.75 
Q 14.984375 37.109375 14.984375 27.296875 
Q 14.984375 17.484375 19.15625 11.84375 
Q 23.34375 6.203125 30.609375 6.203125 
Q 37.796875 6.203125 41.984375 11.859375 
Q 46.1875 17.53125 46.1875 27.296875 
Q 46.1875 37.015625 41.984375 42.703125 
Q 37.796875 48.390625 30.609375 48.390625 
z
M 30.609375 56 
Q 42.328125 56 49.015625 48.375 
Q 55.71875 40.765625 55.71875 27.296875 
Q 55.71875 13.875 49.015625 6.21875 
Q 42.328125 -1.421875 30.609375 -1.421875 
Q 18.84375 -1.421875 12.171875 6.21875 
Q 5.515625 13.875 5.515625 27.296875 
Q 5.515625 40.765625 12.171875 48.375 
Q 18.84375 56 30.609375 56 
z
" id="DejaVuSans-111"/>
       </defs>
       <use xlink:href="#DejaVuSans-103"/>
       <use x="63.476562" xlink:href="#DejaVuSans-97"/>
       <use x="124.755859" xlink:href="#DejaVuSans-117"/>
       <use x="188.134766" xlink:href="#DejaVuSans-115"/>
       <use x="240.234375" xlink:href="#DejaVuSans-115"/>
       <use x="292.333984" xlink:href="#DejaVuSans-105"/>
       <use x="320.117188" xlink:href="#DejaVuSans-97"/>
       <use x="381.396484" xlink:href="#DejaVuSans-110"/>
       <use x="444.775391" xlink:href="#DejaVuSans-95"/>
       <use x="494.775391" xlink:href="#DejaVuSans-110"/>
       <use x="558.154297" xlink:href="#DejaVuSans-111"/>
       <use x="619.335938" xlink:href="#DejaVuSans-105"/>
       <use x="647.119141" xlink:href="#DejaVuSans-115"/>
       <use x="699.21875" xlink:href="#DejaVuSans-101"/>
      </g>
     </g>
    </g>
    <g id="xtick_3">
     <g id="line2d_3">
      <g>
       <use style="stroke:#000000;stroke-width:0.8;" x="206.321013" xlink:href="#m7f2cee9a8f" y="189"/>
      </g>
     </g>
     <g id="text_3">
      <!-- shot_noise -->
      <g transform="translate(210.251481 275.774219)rotate(-90)scale(0.15 -0.15)">
       <defs>
        <path d="M 54.890625 33.015625 
L 54.890625 0 
L 45.90625 0 
L 45.90625 32.71875 
Q 45.90625 40.484375 42.875 44.328125 
Q 39.84375 48.1875 33.796875 48.1875 
Q 26.515625 48.1875 22.3125 43.546875 
Q 18.109375 38.921875 18.109375 30.90625 
L 18.109375 0 
L 9.078125 0 
L 9.078125 75.984375 
L 18.109375 75.984375 
L 18.109375 46.1875 
Q 21.34375 51.125 25.703125 53.5625 
Q 30.078125 56 35.796875 56 
Q 45.21875 56 50.046875 50.171875 
Q 54.890625 44.34375 54.890625 33.015625 
z
" id="DejaVuSans-104"/>
        <path d="M 18.3125 70.21875 
L 18.3125 54.6875 
L 36.8125 54.6875 
L 36.8125 47.703125 
L 18.3125 47.703125 
L 18.3125 18.015625 
Q 18.3125 11.328125 20.140625 9.421875 
Q 21.96875 7.515625 27.59375 7.515625 
L 36.8125 7.515625 
L 36.8125 0 
L 27.59375 0 
Q 17.1875 0 13.234375 3.875 
Q 9.28125 7.765625 9.28125 18.015625 
L 9.28125 47.703125 
L 2.6875 47.703125 
L 2.6875 54.6875 
L 9.28125 54.6875 
L 9.28125 70.21875 
z
" id="DejaVuSans-116"/>
       </defs>
       <use xlink:href="#DejaVuSans-115"/>
       <use x="52.099609" xlink:href="#DejaVuSans-104"/>
       <use x="115.478516" xlink:href="#DejaVuSans-111"/>
       <use x="176.660156" xlink:href="#DejaVuSans-116"/>
       <use x="215.869141" xlink:href="#DejaVuSans-95"/>
       <use x="265.869141" xlink:href="#DejaVuSans-110"/>
       <use x="329.248047" xlink:href="#DejaVuSans-111"/>
       <use x="390.429688" xlink:href="#DejaVuSans-105"/>
       <use x="418.212891" xlink:href="#DejaVuSans-115"/>
       <use x="470.3125" xlink:href="#DejaVuSans-101"/>
      </g>
     </g>
    </g>
    <g id="xtick_4">
     <g id="line2d_4">
      <g>
       <use style="stroke:#000000;stroke-width:0.8;" x="237.142647" xlink:href="#m7f2cee9a8f" y="189"/>
      </g>
     </g>
     <g id="text_4">
      <!-- impulse_noise -->
      <g transform="translate(241.073115 302.413281)rotate(-90)scale(0.15 -0.15)">
       <defs>
        <path d="M 52 44.1875 
Q 55.375 50.25 60.0625 53.125 
Q 64.75 56 71.09375 56 
Q 79.640625 56 84.28125 50.015625 
Q 88.921875 44.046875 88.921875 33.015625 
L 88.921875 0 
L 79.890625 0 
L 79.890625 32.71875 
Q 79.890625 40.578125 77.09375 44.375 
Q 74.3125 48.1875 68.609375 48.1875 
Q 61.625 48.1875 57.5625 43.546875 
Q 53.515625 38.921875 53.515625 30.90625 
L 53.515625 0 
L 44.484375 0 
L 44.484375 32.71875 
Q 44.484375 40.625 41.703125 44.40625 
Q 38.921875 48.1875 33.109375 48.1875 
Q 26.21875 48.1875 22.15625 43.53125 
Q 18.109375 38.875 18.109375 30.90625 
L 18.109375 0 
L 9.078125 0 
L 9.078125 54.6875 
L 18.109375 54.6875 
L 18.109375 46.1875 
Q 21.1875 51.21875 25.484375 53.609375 
Q 29.78125 56 35.6875 56 
Q 41.65625 56 45.828125 52.96875 
Q 50 49.953125 52 44.1875 
z
" id="DejaVuSans-109"/>
        <path d="M 18.109375 8.203125 
L 18.109375 -20.796875 
L 9.078125 -20.796875 
L 9.078125 54.6875 
L 18.109375 54.6875 
L 18.109375 46.390625 
Q 20.953125 51.265625 25.265625 53.625 
Q 29.59375 56 35.59375 56 
Q 45.5625 56 51.78125 48.09375 
Q 58.015625 40.1875 58.015625 27.296875 
Q 58.015625 14.40625 51.78125 6.484375 
Q 45.5625 -1.421875 35.59375 -1.421875 
Q 29.59375 -1.421875 25.265625 0.953125 
Q 20.953125 3.328125 18.109375 8.203125 
z
M 48.6875 27.296875 
Q 48.6875 37.203125 44.609375 42.84375 
Q 40.53125 48.484375 33.40625 48.484375 
Q 26.265625 48.484375 22.1875 42.84375 
Q 18.109375 37.203125 18.109375 27.296875 
Q 18.109375 17.390625 22.1875 11.75 
Q 26.265625 6.109375 33.40625 6.109375 
Q 40.53125 6.109375 44.609375 11.75 
Q 48.6875 17.390625 48.6875 27.296875 
z
" id="DejaVuSans-112"/>
       </defs>
       <use xlink:href="#DejaVuSans-105"/>
       <use x="27.783203" xlink:href="#DejaVuSans-109"/>
       <use x="125.195312" xlink:href="#DejaVuSans-112"/>
       <use x="188.671875" xlink:href="#DejaVuSans-117"/>
       <use x="252.050781" xlink:href="#DejaVuSans-108"/>
       <use x="279.833984" xlink:href="#DejaVuSans-115"/>
       <use x="331.933594" xlink:href="#DejaVuSans-101"/>
       <use x="393.457031" xlink:href="#DejaVuSans-95"/>
       <use x="443.457031" xlink:href="#DejaVuSans-110"/>
       <use x="506.835938" xlink:href="#DejaVuSans-111"/>
       <use x="568.017578" xlink:href="#DejaVuSans-105"/>
       <use x="595.800781" xlink:href="#DejaVuSans-115"/>
       <use x="647.900391" xlink:href="#DejaVuSans-101"/>
      </g>
     </g>
    </g>
    <g id="xtick_5">
     <g id="line2d_5">
      <g>
       <use style="stroke:#000000;stroke-width:0.8;" x="267.964281" xlink:href="#m7f2cee9a8f" y="189"/>
      </g>
     </g>
     <g id="text_5">
      <!-- defocus_blur -->
      <g transform="translate(271.89475 291.641406)rotate(-90)scale(0.15 -0.15)">
       <defs>
        <path d="M 45.40625 46.390625 
L 45.40625 75.984375 
L 54.390625 75.984375 
L 54.390625 0 
L 45.40625 0 
L 45.40625 8.203125 
Q 42.578125 3.328125 38.25 0.953125 
Q 33.9375 -1.421875 27.875 -1.421875 
Q 17.96875 -1.421875 11.734375 6.484375 
Q 5.515625 14.40625 5.515625 27.296875 
Q 5.515625 40.1875 11.734375 48.09375 
Q 17.96875 56 27.875 56 
Q 33.9375 56 38.25 53.625 
Q 42.578125 51.265625 45.40625 46.390625 
z
M 14.796875 27.296875 
Q 14.796875 17.390625 18.875 11.75 
Q 22.953125 6.109375 30.078125 6.109375 
Q 37.203125 6.109375 41.296875 11.75 
Q 45.40625 17.390625 45.40625 27.296875 
Q 45.40625 37.203125 41.296875 42.84375 
Q 37.203125 48.484375 30.078125 48.484375 
Q 22.953125 48.484375 18.875 42.84375 
Q 14.796875 37.203125 14.796875 27.296875 
z
" id="DejaVuSans-100"/>
        <path d="M 37.109375 75.984375 
L 37.109375 68.5 
L 28.515625 68.5 
Q 23.6875 68.5 21.796875 66.546875 
Q 19.921875 64.59375 19.921875 59.515625 
L 19.921875 54.6875 
L 34.71875 54.6875 
L 34.71875 47.703125 
L 19.921875 47.703125 
L 19.921875 0 
L 10.890625 0 
L 10.890625 47.703125 
L 2.296875 47.703125 
L 2.296875 54.6875 
L 10.890625 54.6875 
L 10.890625 58.5 
Q 10.890625 67.625 15.140625 71.796875 
Q 19.390625 75.984375 28.609375 75.984375 
z
" id="DejaVuSans-102"/>
        <path d="M 48.6875 27.296875 
Q 48.6875 37.203125 44.609375 42.84375 
Q 40.53125 48.484375 33.40625 48.484375 
Q 26.265625 48.484375 22.1875 42.84375 
Q 18.109375 37.203125 18.109375 27.296875 
Q 18.109375 17.390625 22.1875 11.75 
Q 26.265625 6.109375 33.40625 6.109375 
Q 40.53125 6.109375 44.609375 11.75 
Q 48.6875 17.390625 48.6875 27.296875 
z
M 18.109375 46.390625 
Q 20.953125 51.265625 25.265625 53.625 
Q 29.59375 56 35.59375 56 
Q 45.5625 56 51.78125 48.09375 
Q 58.015625 40.1875 58.015625 27.296875 
Q 58.015625 14.40625 51.78125 6.484375 
Q 45.5625 -1.421875 35.59375 -1.421875 
Q 29.59375 -1.421875 25.265625 0.953125 
Q 20.953125 3.328125 18.109375 8.203125 
L 18.109375 0 
L 9.078125 0 
L 9.078125 75.984375 
L 18.109375 75.984375 
z
" id="DejaVuSans-98"/>
        <path d="M 41.109375 46.296875 
Q 39.59375 47.171875 37.8125 47.578125 
Q 36.03125 48 33.890625 48 
Q 26.265625 48 22.1875 43.046875 
Q 18.109375 38.09375 18.109375 28.8125 
L 18.109375 0 
L 9.078125 0 
L 9.078125 54.6875 
L 18.109375 54.6875 
L 18.109375 46.1875 
Q 20.953125 51.171875 25.484375 53.578125 
Q 30.03125 56 36.53125 56 
Q 37.453125 56 38.578125 55.875 
Q 39.703125 55.765625 41.0625 55.515625 
z
" id="DejaVuSans-114"/>
       </defs>
       <use xlink:href="#DejaVuSans-100"/>
       <use x="63.476562" xlink:href="#DejaVuSans-101"/>
       <use x="125" xlink:href="#DejaVuSans-102"/>
       <use x="160.205078" xlink:href="#DejaVuSans-111"/>
       <use x="221.386719" xlink:href="#DejaVuSans-99"/>
       <use x="276.367188" xlink:href="#DejaVuSans-117"/>
       <use x="339.746094" xlink:href="#DejaVuSans-115"/>
       <use x="391.845703" xlink:href="#DejaVuSans-95"/>
       <use x="441.845703" xlink:href="#DejaVuSans-98"/>
       <use x="505.322266" xlink:href="#DejaVuSans-108"/>
       <use x="533.105469" xlink:href="#DejaVuSans-117"/>
       <use x="596.484375" xlink:href="#DejaVuSans-114"/>
      </g>
     </g>
    </g>
    <g id="xtick_6">
     <g id="line2d_6">
      <g>
       <use style="stroke:#000000;stroke-width:0.8;" x="298.785915" xlink:href="#m7f2cee9a8f" y="189"/>
      </g>
     </g>
     <g id="text_6">
      <!-- glass_blur -->
      <g transform="translate(302.716384 271.372656)rotate(-90)scale(0.15 -0.15)">
       <use xlink:href="#DejaVuSans-103"/>
       <use x="63.476562" xlink:href="#DejaVuSans-108"/>
       <use x="91.259766" xlink:href="#DejaVuSans-97"/>
       <use x="152.539062" xlink:href="#DejaVuSans-115"/>
       <use x="204.638672" xlink:href="#DejaVuSans-115"/>
       <use x="256.738281" xlink:href="#DejaVuSans-95"/>
       <use x="306.738281" xlink:href="#DejaVuSans-98"/>
       <use x="370.214844" xlink:href="#DejaVuSans-108"/>
       <use x="397.998047" xlink:href="#DejaVuSans-117"/>
       <use x="461.376953" xlink:href="#DejaVuSans-114"/>
      </g>
     </g>
    </g>
    <g id="xtick_7">
     <g id="line2d_7">
      <g>
       <use style="stroke:#000000;stroke-width:0.8;" x="329.607549" xlink:href="#m7f2cee9a8f" y="189"/>
      </g>
     </g>
     <g id="text_7">
      <!-- motion_blur -->
      <g transform="translate(333.538018 285.383594)rotate(-90)scale(0.15 -0.15)">
       <use xlink:href="#DejaVuSans-109"/>
       <use x="97.412109" xlink:href="#DejaVuSans-111"/>
       <use x="158.59375" xlink:href="#DejaVuSans-116"/>
       <use x="197.802734" xlink:href="#DejaVuSans-105"/>
       <use x="225.585938" xlink:href="#DejaVuSans-111"/>
       <use x="286.767578" xlink:href="#DejaVuSans-110"/>
       <use x="350.146484" xlink:href="#DejaVuSans-95"/>
       <use x="400.146484" xlink:href="#DejaVuSans-98"/>
       <use x="463.623047" xlink:href="#DejaVuSans-108"/>
       <use x="491.40625" xlink:href="#DejaVuSans-117"/>
       <use x="554.785156" xlink:href="#DejaVuSans-114"/>
      </g>
     </g>
    </g>
    <g id="xtick_8">
     <g id="line2d_8">
      <g>
       <use style="stroke:#000000;stroke-width:0.8;" x="360.429183" xlink:href="#m7f2cee9a8f" y="189"/>
      </g>
     </g>
     <g id="text_8">
      <!-- zoom_blur -->
      <g transform="translate(364.359652 273.702344)rotate(-90)scale(0.15 -0.15)">
       <defs>
        <path d="M 5.515625 54.6875 
L 48.1875 54.6875 
L 48.1875 46.484375 
L 14.40625 7.171875 
L 48.1875 7.171875 
L 48.1875 0 
L 4.296875 0 
L 4.296875 8.203125 
L 38.09375 47.515625 
L 5.515625 47.515625 
z
" id="DejaVuSans-122"/>
       </defs>
       <use xlink:href="#DejaVuSans-122"/>
       <use x="52.490234" xlink:href="#DejaVuSans-111"/>
       <use x="113.671875" xlink:href="#DejaVuSans-111"/>
       <use x="174.853516" xlink:href="#DejaVuSans-109"/>
       <use x="272.265625" xlink:href="#DejaVuSans-95"/>
       <use x="322.265625" xlink:href="#DejaVuSans-98"/>
       <use x="385.742188" xlink:href="#DejaVuSans-108"/>
       <use x="413.525391" xlink:href="#DejaVuSans-117"/>
       <use x="476.904297" xlink:href="#DejaVuSans-114"/>
      </g>
     </g>
    </g>
    <g id="xtick_9">
     <g id="line2d_9">
      <g>
       <use style="stroke:#000000;stroke-width:0.8;" x="391.250817" xlink:href="#m7f2cee9a8f" y="189"/>
      </g>
     </g>
     <g id="text_9">
      <!-- snow -->
      <g transform="translate(395.38988 234.765625)rotate(-90)scale(0.15 -0.15)">
       <defs>
        <path d="M 4.203125 54.6875 
L 13.1875 54.6875 
L 24.421875 12.015625 
L 35.59375 54.6875 
L 46.1875 54.6875 
L 57.421875 12.015625 
L 68.609375 54.6875 
L 77.59375 54.6875 
L 63.28125 0 
L 52.6875 0 
L 40.921875 44.828125 
L 29.109375 0 
L 18.5 0 
z
" id="DejaVuSans-119"/>
       </defs>
       <use xlink:href="#DejaVuSans-115"/>
       <use x="52.099609" xlink:href="#DejaVuSans-110"/>
       <use x="115.478516" xlink:href="#DejaVuSans-111"/>
       <use x="176.660156" xlink:href="#DejaVuSans-119"/>
      </g>
     </g>
    </g>
    <g id="xtick_10">
     <g id="line2d_10">
      <g>
       <use style="stroke:#000000;stroke-width:0.8;" x="422.072451" xlink:href="#m7f2cee9a8f" y="189"/>
      </g>
     </g>
     <g id="text_10">
      <!-- frost -->
      <g transform="translate(426.211514 229.982031)rotate(-90)scale(0.15 -0.15)">
       <use xlink:href="#DejaVuSans-102"/>
       <use x="35.205078" xlink:href="#DejaVuSans-114"/>
       <use x="74.068359" xlink:href="#DejaVuSans-111"/>
       <use x="135.25" xlink:href="#DejaVuSans-115"/>
       <use x="187.349609" xlink:href="#DejaVuSans-116"/>
      </g>
     </g>
    </g>
    <g id="xtick_11">
     <g id="line2d_11">
      <g>
       <use style="stroke:#000000;stroke-width:0.8;" x="452.894085" xlink:href="#m7f2cee9a8f" y="189"/>
      </g>
     </g>
     <g id="text_11">
      <!-- fog -->
      <g transform="translate(457.033148 219.98125)rotate(-90)scale(0.15 -0.15)">
       <use xlink:href="#DejaVuSans-102"/>
       <use x="35.205078" xlink:href="#DejaVuSans-111"/>
       <use x="96.386719" xlink:href="#DejaVuSans-103"/>
      </g>
     </g>
    </g>
    <g id="xtick_12">
     <g id="line2d_12">
      <g>
       <use style="stroke:#000000;stroke-width:0.8;" x="483.715719" xlink:href="#m7f2cee9a8f" y="189"/>
      </g>
     </g>
     <g id="text_12">
      <!-- brightness -->
      <g transform="translate(487.854782 275.129687)rotate(-90)scale(0.15 -0.15)">
       <use xlink:href="#DejaVuSans-98"/>
       <use x="63.476562" xlink:href="#DejaVuSans-114"/>
       <use x="104.589844" xlink:href="#DejaVuSans-105"/>
       <use x="132.373047" xlink:href="#DejaVuSans-103"/>
       <use x="195.849609" xlink:href="#DejaVuSans-104"/>
       <use x="259.228516" xlink:href="#DejaVuSans-116"/>
       <use x="298.4375" xlink:href="#DejaVuSans-110"/>
       <use x="361.816406" xlink:href="#DejaVuSans-101"/>
       <use x="423.339844" xlink:href="#DejaVuSans-115"/>
       <use x="475.439453" xlink:href="#DejaVuSans-115"/>
      </g>
     </g>
    </g>
    <g id="xtick_13">
     <g id="line2d_13">
      <g>
       <use style="stroke:#000000;stroke-width:0.8;" x="514.537353" xlink:href="#m7f2cee9a8f" y="189"/>
      </g>
     </g>
     <g id="text_13">
      <!-- contrast -->
      <g transform="translate(518.676416 257.865625)rotate(-90)scale(0.15 -0.15)">
       <use xlink:href="#DejaVuSans-99"/>
       <use x="54.980469" xlink:href="#DejaVuSans-111"/>
       <use x="116.162109" xlink:href="#DejaVuSans-110"/>
       <use x="179.541016" xlink:href="#DejaVuSans-116"/>
       <use x="218.75" xlink:href="#DejaVuSans-114"/>
       <use x="259.863281" xlink:href="#DejaVuSans-97"/>
       <use x="321.142578" xlink:href="#DejaVuSans-115"/>
       <use x="373.242188" xlink:href="#DejaVuSans-116"/>
      </g>
     </g>
    </g>
    <g id="xtick_14">
     <g id="line2d_14">
      <g>
       <use style="stroke:#000000;stroke-width:0.8;" x="545.358987" xlink:href="#m7f2cee9a8f" y="189"/>
      </g>
     </g>
     <g id="text_14">
      <!-- elastic_transform -->
      <g transform="translate(549.289456 325.73125)rotate(-90)scale(0.15 -0.15)">
       <use xlink:href="#DejaVuSans-101"/>
       <use x="61.523438" xlink:href="#DejaVuSans-108"/>
       <use x="89.306641" xlink:href="#DejaVuSans-97"/>
       <use x="150.585938" xlink:href="#DejaVuSans-115"/>
       <use x="202.685547" xlink:href="#DejaVuSans-116"/>
       <use x="241.894531" xlink:href="#DejaVuSans-105"/>
       <use x="269.677734" xlink:href="#DejaVuSans-99"/>
       <use x="324.658203" xlink:href="#DejaVuSans-95"/>
       <use x="374.658203" xlink:href="#DejaVuSans-116"/>
       <use x="413.867188" xlink:href="#DejaVuSans-114"/>
       <use x="454.980469" xlink:href="#DejaVuSans-97"/>
       <use x="516.259766" xlink:href="#DejaVuSans-110"/>
       <use x="579.638672" xlink:href="#DejaVuSans-115"/>
       <use x="631.738281" xlink:href="#DejaVuSans-102"/>
       <use x="666.943359" xlink:href="#DejaVuSans-111"/>
       <use x="728.125" xlink:href="#DejaVuSans-114"/>
       <use x="767.488281" xlink:href="#DejaVuSans-109"/>
      </g>
     </g>
    </g>
    <g id="xtick_15">
     <g id="line2d_15">
      <g>
       <use style="stroke:#000000;stroke-width:0.8;" x="576.180621" xlink:href="#m7f2cee9a8f" y="189"/>
      </g>
     </g>
     <g id="text_15">
      <!-- pixelate -->
      <g transform="translate(580.319684 255.798438)rotate(-90)scale(0.15 -0.15)">
       <defs>
        <path d="M 54.890625 54.6875 
L 35.109375 28.078125 
L 55.90625 0 
L 45.3125 0 
L 29.390625 21.484375 
L 13.484375 0 
L 2.875 0 
L 24.125 28.609375 
L 4.6875 54.6875 
L 15.28125 54.6875 
L 29.78125 35.203125 
L 44.28125 54.6875 
z
" id="DejaVuSans-120"/>
       </defs>
       <use xlink:href="#DejaVuSans-112"/>
       <use x="63.476562" xlink:href="#DejaVuSans-105"/>
       <use x="91.259766" xlink:href="#DejaVuSans-120"/>
       <use x="147.314453" xlink:href="#DejaVuSans-101"/>
       <use x="208.837891" xlink:href="#DejaVuSans-108"/>
       <use x="236.621094" xlink:href="#DejaVuSans-97"/>
       <use x="297.900391" xlink:href="#DejaVuSans-116"/>
       <use x="337.109375" xlink:href="#DejaVuSans-101"/>
      </g>
     </g>
    </g>
    <g id="xtick_16">
     <g id="line2d_16">
      <g>
       <use style="stroke:#000000;stroke-width:0.8;" x="607.002255" xlink:href="#m7f2cee9a8f" y="189"/>
      </g>
     </g>
     <g id="text_16">
      <!-- jpeg_compression -->
      <g transform="translate(610.932724 331.039844)rotate(-90)scale(0.15 -0.15)">
       <defs>
        <path d="M 9.421875 54.6875 
L 18.40625 54.6875 
L 18.40625 -0.984375 
Q 18.40625 -11.421875 14.421875 -16.109375 
Q 10.453125 -20.796875 1.609375 -20.796875 
L -1.8125 -20.796875 
L -1.8125 -13.1875 
L 0.59375 -13.1875 
Q 5.71875 -13.1875 7.5625 -10.8125 
Q 9.421875 -8.453125 9.421875 -0.984375 
z
M 9.421875 75.984375 
L 18.40625 75.984375 
L 18.40625 64.59375 
L 9.421875 64.59375 
z
" id="DejaVuSans-106"/>
       </defs>
       <use xlink:href="#DejaVuSans-106"/>
       <use x="27.783203" xlink:href="#DejaVuSans-112"/>
       <use x="91.259766" xlink:href="#DejaVuSans-101"/>
       <use x="152.783203" xlink:href="#DejaVuSans-103"/>
       <use x="216.259766" xlink:href="#DejaVuSans-95"/>
       <use x="266.259766" xlink:href="#DejaVuSans-99"/>
       <use x="321.240234" xlink:href="#DejaVuSans-111"/>
       <use x="382.421875" xlink:href="#DejaVuSans-109"/>
       <use x="479.833984" xlink:href="#DejaVuSans-112"/>
       <use x="543.310547" xlink:href="#DejaVuSans-114"/>
       <use x="582.173828" xlink:href="#DejaVuSans-101"/>
       <use x="643.697266" xlink:href="#DejaVuSans-115"/>
       <use x="695.796875" xlink:href="#DejaVuSans-115"/>
       <use x="747.896484" xlink:href="#DejaVuSans-105"/>
       <use x="775.679688" xlink:href="#DejaVuSans-111"/>
       <use x="836.861328" xlink:href="#DejaVuSans-110"/>
      </g>
     </g>
    </g>
   </g>
   <g id="matplotlib.axis_2">
    <g id="ytick_1">
     <g id="line2d_17">
      <path clip-path="url(#p221b9fc372)" d="M 108 189 
L 643.68 189 
" style="fill:none;stroke:#b0b0b0;stroke-dasharray:0.8,1.32;stroke-dashoffset:0;stroke-width:0.8;"/>
     </g>
     <g id="line2d_18">
      <defs>
       <path d="M 0 0 
L -3.5 0 
" id="md7d3eafddd" style="stroke:#000000;stroke-width:0.8;"/>
      </defs>
      <g>
       <use style="stroke:#000000;stroke-width:0.8;" x="108" xlink:href="#md7d3eafddd" y="189"/>
      </g>
     </g>
     <g id="text_17">
      <!-- 0 -->
      <g transform="translate(91.45625 194.698828)scale(0.15 -0.15)">
       <defs>
        <path d="M 31.78125 66.40625 
Q 24.171875 66.40625 20.328125 58.90625 
Q 16.5 51.421875 16.5 36.375 
Q 16.5 21.390625 20.328125 13.890625 
Q 24.171875 6.390625 31.78125 6.390625 
Q 39.453125 6.390625 43.28125 13.890625 
Q 47.125 21.390625 47.125 36.375 
Q 47.125 51.421875 43.28125 58.90625 
Q 39.453125 66.40625 31.78125 66.40625 
z
M 31.78125 74.21875 
Q 44.046875 74.21875 50.515625 64.515625 
Q 56.984375 54.828125 56.984375 36.375 
Q 56.984375 17.96875 50.515625 8.265625 
Q 44.046875 -1.421875 31.78125 -1.421875 
Q 19.53125 -1.421875 13.0625 8.265625 
Q 6.59375 17.96875 6.59375 36.375 
Q 6.59375 54.828125 13.0625 64.515625 
Q 19.53125 74.21875 31.78125 74.21875 
z
" id="DejaVuSans-48"/>
       </defs>
       <use xlink:href="#DejaVuSans-48"/>
      </g>
     </g>
    </g>
    <g id="ytick_2">
     <g id="line2d_19">
      <path clip-path="url(#p221b9fc372)" d="M 108 140.076 
L 643.68 140.076 
" style="fill:none;stroke:#b0b0b0;stroke-dasharray:0.8,1.32;stroke-dashoffset:0;stroke-width:0.8;"/>
     </g>
     <g id="line2d_20">
      <g>
       <use style="stroke:#000000;stroke-width:0.8;" x="108" xlink:href="#md7d3eafddd" y="140.076"/>
      </g>
     </g>
     <g id="text_18">
      <!-- 30 -->
      <g transform="translate(81.9125 145.774828)scale(0.15 -0.15)">
       <defs>
        <path d="M 40.578125 39.3125 
Q 47.65625 37.796875 51.625 33 
Q 55.609375 28.21875 55.609375 21.1875 
Q 55.609375 10.40625 48.1875 4.484375 
Q 40.765625 -1.421875 27.09375 -1.421875 
Q 22.515625 -1.421875 17.65625 -0.515625 
Q 12.796875 0.390625 7.625 2.203125 
L 7.625 11.71875 
Q 11.71875 9.328125 16.59375 8.109375 
Q 21.484375 6.890625 26.8125 6.890625 
Q 36.078125 6.890625 40.9375 10.546875 
Q 45.796875 14.203125 45.796875 21.1875 
Q 45.796875 27.640625 41.28125 31.265625 
Q 36.765625 34.90625 28.71875 34.90625 
L 20.21875 34.90625 
L 20.21875 43.015625 
L 29.109375 43.015625 
Q 36.375 43.015625 40.234375 45.921875 
Q 44.09375 48.828125 44.09375 54.296875 
Q 44.09375 59.90625 40.109375 62.90625 
Q 36.140625 65.921875 28.71875 65.921875 
Q 24.65625 65.921875 20.015625 65.03125 
Q 15.375 64.15625 9.8125 62.3125 
L 9.8125 71.09375 
Q 15.4375 72.65625 20.34375 73.4375 
Q 25.25 74.21875 29.59375 74.21875 
Q 40.828125 74.21875 47.359375 69.109375 
Q 53.90625 64.015625 53.90625 55.328125 
Q 53.90625 49.265625 50.4375 45.09375 
Q 46.96875 40.921875 40.578125 39.3125 
z
" id="DejaVuSans-51"/>
       </defs>
       <use xlink:href="#DejaVuSans-51"/>
       <use x="63.623047" xlink:href="#DejaVuSans-48"/>
      </g>
     </g>
    </g>
    <g id="ytick_3">
     <g id="line2d_21">
      <path clip-path="url(#p221b9fc372)" d="M 108 91.152 
L 643.68 91.152 
" style="fill:none;stroke:#b0b0b0;stroke-dasharray:0.8,1.32;stroke-dashoffset:0;stroke-width:0.8;"/>
     </g>
     <g id="line2d_22">
      <g>
       <use style="stroke:#000000;stroke-width:0.8;" x="108" xlink:href="#md7d3eafddd" y="91.152"/>
      </g>
     </g>
     <g id="text_19">
      <!-- 60 -->
      <g transform="translate(81.9125 96.850828)scale(0.15 -0.15)">
       <defs>
        <path d="M 33.015625 40.375 
Q 26.375 40.375 22.484375 35.828125 
Q 18.609375 31.296875 18.609375 23.390625 
Q 18.609375 15.53125 22.484375 10.953125 
Q 26.375 6.390625 33.015625 6.390625 
Q 39.65625 6.390625 43.53125 10.953125 
Q 47.40625 15.53125 47.40625 23.390625 
Q 47.40625 31.296875 43.53125 35.828125 
Q 39.65625 40.375 33.015625 40.375 
z
M 52.59375 71.296875 
L 52.59375 62.3125 
Q 48.875 64.0625 45.09375 64.984375 
Q 41.3125 65.921875 37.59375 65.921875 
Q 27.828125 65.921875 22.671875 59.328125 
Q 17.53125 52.734375 16.796875 39.40625 
Q 19.671875 43.65625 24.015625 45.921875 
Q 28.375 48.1875 33.59375 48.1875 
Q 44.578125 48.1875 50.953125 41.515625 
Q 57.328125 34.859375 57.328125 23.390625 
Q 57.328125 12.15625 50.6875 5.359375 
Q 44.046875 -1.421875 33.015625 -1.421875 
Q 20.359375 -1.421875 13.671875 8.265625 
Q 6.984375 17.96875 6.984375 36.375 
Q 6.984375 53.65625 15.1875 63.9375 
Q 23.390625 74.21875 37.203125 74.21875 
Q 40.921875 74.21875 44.703125 73.484375 
Q 48.484375 72.75 52.59375 71.296875 
z
" id="DejaVuSans-54"/>
       </defs>
       <use xlink:href="#DejaVuSans-54"/>
       <use x="63.623047" xlink:href="#DejaVuSans-48"/>
      </g>
     </g>
    </g>
    <g id="ytick_4">
     <g id="line2d_23">
      <path clip-path="url(#p221b9fc372)" d="M 108 42.228 
L 643.68 42.228 
" style="fill:none;stroke:#b0b0b0;stroke-dasharray:0.8,1.32;stroke-dashoffset:0;stroke-width:0.8;"/>
     </g>
     <g id="line2d_24">
      <g>
       <use style="stroke:#000000;stroke-width:0.8;" x="108" xlink:href="#md7d3eafddd" y="42.228"/>
      </g>
     </g>
     <g id="text_20">
      <!-- 90 -->
      <g transform="translate(81.9125 47.926828)scale(0.15 -0.15)">
       <defs>
        <path d="M 10.984375 1.515625 
L 10.984375 10.5 
Q 14.703125 8.734375 18.5 7.8125 
Q 22.3125 6.890625 25.984375 6.890625 
Q 35.75 6.890625 40.890625 13.453125 
Q 46.046875 20.015625 46.78125 33.40625 
Q 43.953125 29.203125 39.59375 26.953125 
Q 35.25 24.703125 29.984375 24.703125 
Q 19.046875 24.703125 12.671875 31.3125 
Q 6.296875 37.9375 6.296875 49.421875 
Q 6.296875 60.640625 12.9375 67.421875 
Q 19.578125 74.21875 30.609375 74.21875 
Q 43.265625 74.21875 49.921875 64.515625 
Q 56.59375 54.828125 56.59375 36.375 
Q 56.59375 19.140625 48.40625 8.859375 
Q 40.234375 -1.421875 26.421875 -1.421875 
Q 22.703125 -1.421875 18.890625 -0.6875 
Q 15.09375 0.046875 10.984375 1.515625 
z
M 30.609375 32.421875 
Q 37.25 32.421875 41.125 36.953125 
Q 45.015625 41.5 45.015625 49.421875 
Q 45.015625 57.28125 41.125 61.84375 
Q 37.25 66.40625 30.609375 66.40625 
Q 23.96875 66.40625 20.09375 61.84375 
Q 16.21875 57.28125 16.21875 49.421875 
Q 16.21875 41.5 20.09375 36.953125 
Q 23.96875 32.421875 30.609375 32.421875 
z
" id="DejaVuSans-57"/>
       </defs>
       <use xlink:href="#DejaVuSans-57"/>
       <use x="63.623047" xlink:href="#DejaVuSans-48"/>
      </g>
     </g>
    </g>
    <g id="text_21">
     <!-- accuracy (%) -->
     <g transform="translate(74.792969 156.661172)rotate(-90)scale(0.15 -0.15)">
      <defs>
       <path d="M 32.171875 -5.078125 
Q 28.375 -14.84375 24.75 -17.8125 
Q 21.140625 -20.796875 15.09375 -20.796875 
L 7.90625 -20.796875 
L 7.90625 -13.28125 
L 13.1875 -13.28125 
Q 16.890625 -13.28125 18.9375 -11.515625 
Q 21 -9.765625 23.484375 -3.21875 
L 25.09375 0.875 
L 2.984375 54.6875 
L 12.5 54.6875 
L 29.59375 11.921875 
L 46.6875 54.6875 
L 56.203125 54.6875 
z
" id="DejaVuSans-121"/>
       <path id="DejaVuSans-32"/>
       <path d="M 31 75.875 
Q 24.46875 64.65625 21.28125 53.65625 
Q 18.109375 42.671875 18.109375 31.390625 
Q 18.109375 20.125 21.3125 9.0625 
Q 24.515625 -2 31 -13.1875 
L 23.1875 -13.1875 
Q 15.875 -1.703125 12.234375 9.375 
Q 8.59375 20.453125 8.59375 31.390625 
Q 8.59375 42.28125 12.203125 53.3125 
Q 15.828125 64.359375 23.1875 75.875 
z
" id="DejaVuSans-40"/>
       <path d="M 72.703125 32.078125 
Q 68.453125 32.078125 66.03125 28.46875 
Q 63.625 24.859375 63.625 18.40625 
Q 63.625 12.0625 66.03125 8.421875 
Q 68.453125 4.78125 72.703125 4.78125 
Q 76.859375 4.78125 79.265625 8.421875 
Q 81.6875 12.0625 81.6875 18.40625 
Q 81.6875 24.8125 79.265625 28.4375 
Q 76.859375 32.078125 72.703125 32.078125 
z
M 72.703125 38.28125 
Q 80.421875 38.28125 84.953125 32.90625 
Q 89.5 27.546875 89.5 18.40625 
Q 89.5 9.28125 84.9375 3.921875 
Q 80.375 -1.421875 72.703125 -1.421875 
Q 64.890625 -1.421875 60.34375 3.921875 
Q 55.8125 9.28125 55.8125 18.40625 
Q 55.8125 27.59375 60.375 32.9375 
Q 64.9375 38.28125 72.703125 38.28125 
z
M 22.3125 68.015625 
Q 18.109375 68.015625 15.6875 64.375 
Q 13.28125 60.75 13.28125 54.390625 
Q 13.28125 47.953125 15.671875 44.328125 
Q 18.0625 40.71875 22.3125 40.71875 
Q 26.5625 40.71875 28.96875 44.328125 
Q 31.390625 47.953125 31.390625 54.390625 
Q 31.390625 60.6875 28.953125 64.34375 
Q 26.515625 68.015625 22.3125 68.015625 
z
M 66.40625 74.21875 
L 74.21875 74.21875 
L 28.609375 -1.421875 
L 20.796875 -1.421875 
z
M 22.3125 74.21875 
Q 30.03125 74.21875 34.609375 68.875 
Q 39.203125 63.53125 39.203125 54.390625 
Q 39.203125 45.171875 34.640625 39.84375 
Q 30.078125 34.515625 22.3125 34.515625 
Q 14.546875 34.515625 10.03125 39.859375 
Q 5.515625 45.21875 5.515625 54.390625 
Q 5.515625 63.484375 10.046875 68.84375 
Q 14.59375 74.21875 22.3125 74.21875 
z
" id="DejaVuSans-37"/>
       <path d="M 8.015625 75.875 
L 15.828125 75.875 
Q 23.140625 64.359375 26.78125 53.3125 
Q 30.421875 42.28125 30.421875 31.390625 
Q 30.421875 20.453125 26.78125 9.375 
Q 23.140625 -1.703125 15.828125 -13.1875 
L 8.015625 -13.1875 
Q 14.5 -2 17.703125 9.0625 
Q 20.90625 20.125 20.90625 31.390625 
Q 20.90625 42.671875 17.703125 53.65625 
Q 14.5 64.65625 8.015625 75.875 
z
" id="DejaVuSans-41"/>
      </defs>
      <use xlink:href="#DejaVuSans-97"/>
      <use x="61.279297" xlink:href="#DejaVuSans-99"/>
      <use x="116.259766" xlink:href="#DejaVuSans-99"/>
      <use x="171.240234" xlink:href="#DejaVuSans-117"/>
      <use x="234.619141" xlink:href="#DejaVuSans-114"/>
      <use x="275.732422" xlink:href="#DejaVuSans-97"/>
      <use x="337.011719" xlink:href="#DejaVuSans-99"/>
      <use x="391.992188" xlink:href="#DejaVuSans-121"/>
      <use x="451.171875" xlink:href="#DejaVuSans-32"/>
      <use x="482.958984" xlink:href="#DejaVuSans-40"/>
      <use x="521.972656" xlink:href="#DejaVuSans-37"/>
      <use x="616.992188" xlink:href="#DejaVuSans-41"/>
     </g>
    </g>
   </g>
   <g id="patch_3">
    <path clip-path="url(#p221b9fc372)" d="M 132.349091 189 
L 137.280552 189 
L 137.280552 38.37605 
L 132.349091 38.37605 
z
" style="fill:#aec7e8;"/>
   </g>
   <g id="patch_4">
    <path clip-path="url(#p221b9fc372)" d="M 163.170725 189 
L 168.102186 189 
L 168.102186 100.811555 
L 163.170725 100.811555 
z
" style="fill:#aec7e8;"/>
   </g>
   <g id="patch_5">
    <path clip-path="url(#p221b9fc372)" d="M 193.992359 189 
L 198.92382 189 
L 198.92382 85.483339 
L 193.992359 85.483339 
z
" style="fill:#aec7e8;"/>
   </g>
   <g id="patch_6">
    <path clip-path="url(#p221b9fc372)" d="M 224.813993 189 
L 229.745455 189 
L 229.745455 87.408988 
L 224.813993 87.408988 
z
" style="fill:#aec7e8;"/>
   </g>
   <g id="patch_7">
    <path clip-path="url(#p221b9fc372)" d="M 255.635627 189 
L 260.567089 189 
L 260.567089 64.648238 
L 255.635627 64.648238 
z
" style="fill:#aec7e8;"/>
   </g>
   <g id="patch_8">
    <path clip-path="url(#p221b9fc372)" d="M 286.457261 189 
L 291.388723 189 
L 291.388723 114.621169 
L 286.457261 114.621169 
z
" style="fill:#aec7e8;"/>
   </g>
   <g id="patch_9">
    <path clip-path="url(#p221b9fc372)" d="M 317.278895 189 
L 322.210357 189 
L 322.210357 73.778761 
L 317.278895 73.778761 
z
" style="fill:#aec7e8;"/>
   </g>
   <g id="patch_10">
    <path clip-path="url(#p221b9fc372)" d="M 348.100529 189 
L 353.031991 189 
L 353.031991 77.902076 
L 348.100529 77.902076 
z
" style="fill:#aec7e8;"/>
   </g>
   <g id="patch_11">
    <path clip-path="url(#p221b9fc372)" d="M 378.922163 189 
L 383.853625 189 
L 383.853625 63.945037 
L 378.922163 63.945037 
z
" style="fill:#aec7e8;"/>
   </g>
   <g id="patch_12">
    <path clip-path="url(#p221b9fc372)" d="M 409.743797 189 
L 414.675259 189 
L 414.675259 74.765069 
L 409.743797 74.765069 
z
" style="fill:#aec7e8;"/>
   </g>
   <g id="patch_13">
    <path clip-path="url(#p221b9fc372)" d="M 440.565432 189 
L 445.496893 189 
L 445.496893 54.317447 
L 440.565432 54.317447 
z
" style="fill:#aec7e8;"/>
   </g>
   <g id="patch_14">
    <path clip-path="url(#p221b9fc372)" d="M 471.387066 189 
L 476.318527 189 
L 476.318527 40.986635 
L 471.387066 40.986635 
z
" style="fill:#aec7e8;"/>
   </g>
   <g id="patch_15">
    <path clip-path="url(#p221b9fc372)" d="M 502.2087 189 
L 507.140161 189 
L 507.140161 69.941163 
L 502.2087 69.941163 
z
" style="fill:#aec7e8;"/>
   </g>
   <g id="patch_16">
    <path clip-path="url(#p221b9fc372)" d="M 533.030334 189 
L 537.961795 189 
L 537.961795 59.37945 
L 533.030334 59.37945 
z
" style="fill:#aec7e8;"/>
   </g>
   <g id="patch_17">
    <path clip-path="url(#p221b9fc372)" d="M 563.851968 189 
L 568.783429 189 
L 568.783429 75.973166 
L 563.851968 75.973166 
z
" style="fill:#aec7e8;"/>
   </g>
   <g id="patch_18">
    <path clip-path="url(#p221b9fc372)" d="M 594.673602 189 
L 599.605063 189 
L 599.605063 60.174628 
L 594.673602 60.174628 
z
" style="fill:#aec7e8;"/>
   </g>
   <g id="patch_19">
    <path clip-path="url(#p221b9fc372)" d="M 137.280552 189 
L 142.212014 189 
L 142.212014 44.584506 
L 137.280552 44.584506 
z
" style="fill:#ffbb78;"/>
   </g>
   <g id="patch_20">
    <path clip-path="url(#p221b9fc372)" d="M 168.102186 189 
L 173.033648 189 
L 173.033648 79.766407 
L 168.102186 79.766407 
z
" style="fill:#ffbb78;"/>
   </g>
   <g id="patch_21">
    <path clip-path="url(#p221b9fc372)" d="M 198.92382 189 
L 203.855282 189 
L 203.855282 71.320494 
L 198.92382 71.320494 
z
" style="fill:#ffbb78;"/>
   </g>
   <g id="patch_22">
    <path clip-path="url(#p221b9fc372)" d="M 229.745455 189 
L 234.676916 189 
L 234.676916 78.656158 
L 229.745455 78.656158 
z
" style="fill:#ffbb78;"/>
   </g>
   <g id="patch_23">
    <path clip-path="url(#p221b9fc372)" d="M 260.567089 189 
L 265.49855 189 
L 265.49855 68.953224 
L 260.567089 68.953224 
z
" style="fill:#ffbb78;"/>
   </g>
   <g id="patch_24">
    <path clip-path="url(#p221b9fc372)" d="M 291.388723 189 
L 296.320184 189 
L 296.320184 97.591051 
L 291.388723 97.591051 
z
" style="fill:#ffbb78;"/>
   </g>
   <g id="patch_25">
    <path clip-path="url(#p221b9fc372)" d="M 322.210357 189 
L 327.141818 189 
L 327.141818 78.608865 
L 322.210357 78.608865 
z
" style="fill:#ffbb78;"/>
   </g>
   <g id="patch_26">
    <path clip-path="url(#p221b9fc372)" d="M 353.031991 189 
L 357.963452 189 
L 357.963452 81.120949 
L 353.031991 81.120949 
z
" style="fill:#ffbb78;"/>
   </g>
   <g id="patch_27">
    <path clip-path="url(#p221b9fc372)" d="M 383.853625 189 
L 388.785086 189 
L 388.785086 65.493319 
L 383.853625 65.493319 
z
" style="fill:#ffbb78;"/>
   </g>
   <g id="patch_28">
    <path clip-path="url(#p221b9fc372)" d="M 414.675259 189 
L 419.60672 189 
L 419.60672 67.958762 
L 414.675259 67.958762 
z
" style="fill:#ffbb78;"/>
   </g>
   <g id="patch_29">
    <path clip-path="url(#p221b9fc372)" d="M 445.496893 189 
L 450.428354 189 
L 450.428354 56.264296 
L 445.496893 56.264296 
z
" style="fill:#ffbb78;"/>
   </g>
   <g id="patch_30">
    <path clip-path="url(#p221b9fc372)" d="M 476.318527 189 
L 481.249988 189 
L 481.249988 48.140302 
L 476.318527 48.140302 
z
" style="fill:#ffbb78;"/>
   </g>
   <g id="patch_31">
    <path clip-path="url(#p221b9fc372)" d="M 507.140161 189 
L 512.071623 189 
L 512.071623 81.961464 
L 507.140161 81.961464 
z
" style="fill:#ffbb78;"/>
   </g>
   <g id="patch_32">
    <path clip-path="url(#p221b9fc372)" d="M 537.961795 189 
L 542.893257 189 
L 542.893257 63.655081 
L 537.961795 63.655081 
z
" style="fill:#ffbb78;"/>
   </g>
   <g id="patch_33">
    <path clip-path="url(#p221b9fc372)" d="M 568.783429 189 
L 573.714891 189 
L 573.714891 80.662694 
L 568.783429 80.662694 
z
" style="fill:#ffbb78;"/>
   </g>
   <g id="patch_34">
    <path clip-path="url(#p221b9fc372)" d="M 599.605063 189 
L 604.536525 189 
L 604.536525 59.086232 
L 599.605063 59.086232 
z
" style="fill:#ffbb78;"/>
   </g>
   <g id="patch_35">
    <path clip-path="url(#p221b9fc372)" d="M 142.212014 189 
L 147.143475 189 
L 147.143475 44.217576 
L 142.212014 44.217576 
z
" style="fill:#98df8a;"/>
   </g>
   <g id="patch_36">
    <path clip-path="url(#p221b9fc372)" d="M 173.033648 189 
L 177.965109 189 
L 177.965109 84.466535 
L 173.033648 84.466535 
z
" style="fill:#98df8a;"/>
   </g>
   <g id="patch_37">
    <path clip-path="url(#p221b9fc372)" d="M 203.855282 189 
L 208.786743 189 
L 208.786743 74.197388 
L 203.855282 74.197388 
z
" style="fill:#98df8a;"/>
   </g>
   <g id="patch_38">
    <path clip-path="url(#p221b9fc372)" d="M 234.676916 189 
L 239.608377 189 
L 239.608377 78.572824 
L 234.676916 78.572824 
z
" style="fill:#98df8a;"/>
   </g>
   <g id="patch_39">
    <path clip-path="url(#p221b9fc372)" d="M 265.49855 189 
L 270.430012 189 
L 270.430012 65.146448 
L 265.49855 65.146448 
z
" style="fill:#98df8a;"/>
   </g>
   <g id="patch_40">
    <path clip-path="url(#p221b9fc372)" d="M 296.320184 189 
L 301.251646 189 
L 301.251646 100.968601 
L 296.320184 100.968601 
z
" style="fill:#98df8a;"/>
   </g>
   <g id="patch_41">
    <path clip-path="url(#p221b9fc372)" d="M 327.141818 189 
L 332.07328 189 
L 332.07328 73.547514 
L 327.141818 73.547514 
z
" style="fill:#98df8a;"/>
   </g>
   <g id="patch_42">
    <path clip-path="url(#p221b9fc372)" d="M 357.963452 189 
L 362.894914 189 
L 362.894914 74.782845 
L 357.963452 74.782845 
z
" style="fill:#98df8a;"/>
   </g>
   <g id="patch_43">
    <path clip-path="url(#p221b9fc372)" d="M 388.785086 189 
L 393.716548 189 
L 393.716548 65.443253 
L 388.785086 65.443253 
z
" style="fill:#98df8a;"/>
   </g>
   <g id="patch_44">
    <path clip-path="url(#p221b9fc372)" d="M 419.60672 189 
L 424.538182 189 
L 424.538182 67.757359 
L 419.60672 67.757359 
z
" style="fill:#98df8a;"/>
   </g>
   <g id="patch_45">
    <path clip-path="url(#p221b9fc372)" d="M 450.428354 189 
L 455.359816 189 
L 455.359816 52.172618 
L 450.428354 52.172618 
z
" style="fill:#98df8a;"/>
   </g>
   <g id="patch_46">
    <path clip-path="url(#p221b9fc372)" d="M 481.249988 189 
L 486.18145 189 
L 486.18145 47.608009 
L 481.249988 47.608009 
z
" style="fill:#98df8a;"/>
   </g>
   <g id="patch_47">
    <path clip-path="url(#p221b9fc372)" d="M 512.071623 189 
L 517.003084 189 
L 517.003084 70.571304 
L 512.071623 70.571304 
z
" style="fill:#98df8a;"/>
   </g>
   <g id="patch_48">
    <path clip-path="url(#p221b9fc372)" d="M 542.893257 189 
L 547.824718 189 
L 547.824718 62.543691 
L 542.893257 62.543691 
z
" style="fill:#98df8a;"/>
   </g>
   <g id="patch_49">
    <path clip-path="url(#p221b9fc372)" d="M 573.714891 189 
L 578.646352 189 
L 578.646352 83.488871 
L 573.714891 83.488871 
z
" style="fill:#98df8a;"/>
   </g>
   <g id="patch_50">
    <path clip-path="url(#p221b9fc372)" d="M 604.536525 189 
L 609.467986 189 
L 609.467986 61.577442 
L 604.536525 61.577442 
z
" style="fill:#98df8a;"/>
   </g>
   <g id="patch_51">
    <path clip-path="url(#p221b9fc372)" d="M 147.143475 189 
L 152.074937 189 
L 152.074937 45.254765 
L 147.143475 45.254765 
z
" style="fill:#ff9896;"/>
   </g>
   <g id="patch_52">
    <path clip-path="url(#p221b9fc372)" d="M 177.965109 189 
L 182.896571 189 
L 182.896571 57.708858 
L 177.965109 57.708858 
z
" style="fill:#ff9896;"/>
   </g>
   <g id="patch_53">
    <path clip-path="url(#p221b9fc372)" d="M 208.786743 189 
L 213.718205 189 
L 213.718205 54.050648 
L 208.786743 54.050648 
z
" style="fill:#ff9896;"/>
   </g>
   <g id="patch_54">
    <path clip-path="url(#p221b9fc372)" d="M 239.608377 189 
L 244.539839 189 
L 244.539839 68.279052 
L 239.608377 68.279052 
z
" style="fill:#ff9896;"/>
   </g>
   <g id="patch_55">
    <path clip-path="url(#p221b9fc372)" d="M 270.430012 189 
L 275.361473 189 
L 275.361473 53.040856 
L 270.430012 53.040856 
z
" style="fill:#ff9896;"/>
   </g>
   <g id="patch_56">
    <path clip-path="url(#p221b9fc372)" d="M 301.251646 189 
L 306.183107 189 
L 306.183107 59.774103 
L 301.251646 59.774103 
z
" style="fill:#ff9896;"/>
   </g>
   <g id="patch_57">
    <path clip-path="url(#p221b9fc372)" d="M 332.07328 189 
L 337.004741 189 
L 337.004741 63.442099 
L 332.07328 63.442099 
z
" style="fill:#ff9896;"/>
   </g>
   <g id="patch_58">
    <path clip-path="url(#p221b9fc372)" d="M 362.894914 189 
L 367.826375 189 
L 367.826375 54.646868 
L 362.894914 54.646868 
z
" style="fill:#ff9896;"/>
   </g>
   <g id="patch_59">
    <path clip-path="url(#p221b9fc372)" d="M 393.716548 189 
L 398.648009 189 
L 398.648009 58.522954 
L 393.716548 58.522954 
z
" style="fill:#ff9896;"/>
   </g>
   <g id="patch_60">
    <path clip-path="url(#p221b9fc372)" d="M 424.538182 189 
L 429.469643 189 
L 429.469643 56.336377 
L 424.538182 56.336377 
z
" style="fill:#ff9896;"/>
   </g>
   <g id="patch_61">
    <path clip-path="url(#p221b9fc372)" d="M 455.359816 189 
L 460.291277 189 
L 460.291277 66.067687 
L 455.359816 66.067687 
z
" style="fill:#ff9896;"/>
   </g>
   <g id="patch_62">
    <path clip-path="url(#p221b9fc372)" d="M 486.18145 189 
L 491.112911 189 
L 491.112911 48.667703 
L 486.18145 48.667703 
z
" style="fill:#ff9896;"/>
   </g>
   <g id="patch_63">
    <path clip-path="url(#p221b9fc372)" d="M 517.003084 189 
L 521.934545 189 
L 521.934545 84.510078 
L 517.003084 84.510078 
z
" style="fill:#ff9896;"/>
   </g>
   <g id="patch_64">
    <path clip-path="url(#p221b9fc372)" d="M 547.824718 189 
L 552.75618 189 
L 552.75618 54.444649 
L 547.824718 54.444649 
z
" style="fill:#ff9896;"/>
   </g>
   <g id="patch_65">
    <path clip-path="url(#p221b9fc372)" d="M 578.646352 189 
L 583.577814 189 
L 583.577814 47.517011 
L 578.646352 47.517011 
z
" style="fill:#ff9896;"/>
   </g>
   <g id="patch_66">
    <path clip-path="url(#p221b9fc372)" d="M 609.467986 189 
L 614.399448 189 
L 614.399448 50.01931 
L 609.467986 50.01931 
z
" style="fill:#ff9896;"/>
   </g>
   <g id="patch_67">
    <path clip-path="url(#p221b9fc372)" d="M 152.074937 189 
L 157.006398 189 
L 157.006398 44.869896 
L 152.074937 44.869896 
z
" style="fill:#c7c7c7;"/>
   </g>
   <g id="patch_68">
    <path clip-path="url(#p221b9fc372)" d="M 182.896571 189 
L 187.828032 189 
L 187.828032 62.543202 
L 182.896571 62.543202 
z
" style="fill:#c7c7c7;"/>
   </g>
   <g id="patch_69">
    <path clip-path="url(#p221b9fc372)" d="M 213.718205 189 
L 218.649666 189 
L 218.649666 56.100889 
L 213.718205 56.100889 
z
" style="fill:#c7c7c7;"/>
   </g>
   <g id="patch_70">
    <path clip-path="url(#p221b9fc372)" d="M 244.539839 189 
L 249.4713 189 
L 249.4713 58.591447 
L 244.539839 58.591447 
z
" style="fill:#c7c7c7;"/>
   </g>
   <g id="patch_71">
    <path clip-path="url(#p221b9fc372)" d="M 275.361473 189 
L 280.292934 189 
L 280.292934 46.976237 
L 275.361473 46.976237 
z
" style="fill:#c7c7c7;"/>
   </g>
   <g id="patch_72">
    <path clip-path="url(#p221b9fc372)" d="M 306.183107 189 
L 311.114568 189 
L 311.114568 68.3208 
L 306.183107 68.3208 
z
" style="fill:#c7c7c7;"/>
   </g>
   <g id="patch_73">
    <path clip-path="url(#p221b9fc372)" d="M 337.004741 189 
L 341.936203 189 
L 341.936203 50.082585 
L 337.004741 50.082585 
z
" style="fill:#c7c7c7;"/>
   </g>
   <g id="patch_74">
    <path clip-path="url(#p221b9fc372)" d="M 367.826375 189 
L 372.757837 189 
L 372.757837 48.548981 
L 367.826375 48.548981 
z
" style="fill:#c7c7c7;"/>
   </g>
   <g id="patch_75">
    <path clip-path="url(#p221b9fc372)" d="M 398.648009 189 
L 403.579471 189 
L 403.579471 55.836048 
L 398.648009 55.836048 
z
" style="fill:#c7c7c7;"/>
   </g>
   <g id="patch_76">
    <path clip-path="url(#p221b9fc372)" d="M 429.469643 189 
L 434.401105 189 
L 434.401105 54.507272 
L 429.469643 54.507272 
z
" style="fill:#c7c7c7;"/>
   </g>
   <g id="patch_77">
    <path clip-path="url(#p221b9fc372)" d="M 460.291277 189 
L 465.222739 189 
L 465.222739 54.763633 
L 460.291277 54.763633 
z
" style="fill:#c7c7c7;"/>
   </g>
   <g id="patch_78">
    <path clip-path="url(#p221b9fc372)" d="M 491.112911 189 
L 496.044373 189 
L 496.044373 46.751187 
L 491.112911 46.751187 
z
" style="fill:#c7c7c7;"/>
   </g>
   <g id="patch_79">
    <path clip-path="url(#p221b9fc372)" d="M 521.934545 189 
L 526.866007 189 
L 526.866007 50.580958 
L 521.934545 50.580958 
z
" style="fill:#c7c7c7;"/>
   </g>
   <g id="patch_80">
    <path clip-path="url(#p221b9fc372)" d="M 552.75618 189 
L 557.687641 189 
L 557.687641 52.02976 
L 552.75618 52.02976 
z
" style="fill:#c7c7c7;"/>
   </g>
   <g id="patch_81">
    <path clip-path="url(#p221b9fc372)" d="M 583.577814 189 
L 588.509275 189 
L 588.509275 52.831462 
L 583.577814 52.831462 
z
" style="fill:#c7c7c7;"/>
   </g>
   <g id="patch_82">
    <path clip-path="url(#p221b9fc372)" d="M 614.399448 189 
L 619.330909 189 
L 619.330909 51.727084 
L 614.399448 51.727084 
z
" style="fill:#c7c7c7;"/>
   </g>
   <g id="LineCollection_1">
    <path clip-path="url(#p221b9fc372)" d="M 134.814822 38.638742 
L 134.814822 38.113359 
" style="fill:none;stroke:#1f77b4;stroke-width:3;"/>
    <path clip-path="url(#p221b9fc372)" d="M 165.636456 102.007873 
L 165.636456 99.615236 
" style="fill:none;stroke:#1f77b4;stroke-width:3;"/>
    <path clip-path="url(#p221b9fc372)" d="M 196.45809 86.459334 
L 196.45809 84.507344 
" style="fill:none;stroke:#1f77b4;stroke-width:3;"/>
    <path clip-path="url(#p221b9fc372)" d="M 227.279724 87.924123 
L 227.279724 86.893853 
" style="fill:none;stroke:#1f77b4;stroke-width:3;"/>
    <path clip-path="url(#p221b9fc372)" d="M 258.101358 65.508103 
L 258.101358 63.788374 
" style="fill:none;stroke:#1f77b4;stroke-width:3;"/>
    <path clip-path="url(#p221b9fc372)" d="M 288.922992 116.50261 
L 288.922992 112.739728 
" style="fill:none;stroke:#1f77b4;stroke-width:3;"/>
    <path clip-path="url(#p221b9fc372)" d="M 319.744626 74.893862 
L 319.744626 72.663661 
" style="fill:none;stroke:#1f77b4;stroke-width:3;"/>
    <path clip-path="url(#p221b9fc372)" d="M 350.56626 78.98673 
L 350.56626 76.817422 
" style="fill:none;stroke:#1f77b4;stroke-width:3;"/>
    <path clip-path="url(#p221b9fc372)" d="M 381.387894 64.349493 
L 381.387894 63.540582 
" style="fill:none;stroke:#1f77b4;stroke-width:3;"/>
    <path clip-path="url(#p221b9fc372)" d="M 412.209528 75.484085 
L 412.209528 74.046053 
" style="fill:none;stroke:#1f77b4;stroke-width:3;"/>
    <path clip-path="url(#p221b9fc372)" d="M 443.031162 54.704451 
L 443.031162 53.930443 
" style="fill:none;stroke:#1f77b4;stroke-width:3;"/>
    <path clip-path="url(#p221b9fc372)" d="M 473.852796 41.282028 
L 473.852796 40.691242 
" style="fill:none;stroke:#1f77b4;stroke-width:3;"/>
    <path clip-path="url(#p221b9fc372)" d="M 504.67443 70.69659 
L 504.67443 69.185736 
" style="fill:none;stroke:#1f77b4;stroke-width:3;"/>
    <path clip-path="url(#p221b9fc372)" d="M 535.496064 59.8685 
L 535.496064 58.8904 
" style="fill:none;stroke:#1f77b4;stroke-width:3;"/>
    <path clip-path="url(#p221b9fc372)" d="M 566.317699 76.70162 
L 566.317699 75.244712 
" style="fill:none;stroke:#1f77b4;stroke-width:3;"/>
    <path clip-path="url(#p221b9fc372)" d="M 597.139333 60.403641 
L 597.139333 59.945615 
" style="fill:none;stroke:#1f77b4;stroke-width:3;"/>
   </g>
   <g id="LineCollection_2">
    <path clip-path="url(#p221b9fc372)" d="M 139.746283 45.038321 
L 139.746283 44.130691 
" style="fill:none;stroke:#ff7f0e;stroke-width:3;"/>
    <path clip-path="url(#p221b9fc372)" d="M 170.567917 80.730525 
L 170.567917 78.802288 
" style="fill:none;stroke:#ff7f0e;stroke-width:3;"/>
    <path clip-path="url(#p221b9fc372)" d="M 201.389551 72.136182 
L 201.389551 70.504805 
" style="fill:none;stroke:#ff7f0e;stroke-width:3;"/>
    <path clip-path="url(#p221b9fc372)" d="M 232.211185 79.834189 
L 232.211185 77.478127 
" style="fill:none;stroke:#ff7f0e;stroke-width:3;"/>
    <path clip-path="url(#p221b9fc372)" d="M 263.032819 69.637356 
L 263.032819 68.269093 
" style="fill:none;stroke:#ff7f0e;stroke-width:3;"/>
    <path clip-path="url(#p221b9fc372)" d="M 293.854453 98.497763 
L 293.854453 96.684339 
" style="fill:none;stroke:#ff7f0e;stroke-width:3;"/>
    <path clip-path="url(#p221b9fc372)" d="M 324.676087 79.722868 
L 324.676087 77.494862 
" style="fill:none;stroke:#ff7f0e;stroke-width:3;"/>
    <path clip-path="url(#p221b9fc372)" d="M 355.497722 82.03463 
L 355.497722 80.207268 
" style="fill:none;stroke:#ff7f0e;stroke-width:3;"/>
    <path clip-path="url(#p221b9fc372)" d="M 386.319356 66.052766 
L 386.319356 64.933872 
" style="fill:none;stroke:#ff7f0e;stroke-width:3;"/>
    <path clip-path="url(#p221b9fc372)" d="M 417.14099 68.727458 
L 417.14099 67.190067 
" style="fill:none;stroke:#ff7f0e;stroke-width:3;"/>
    <path clip-path="url(#p221b9fc372)" d="M 447.962624 57.231386 
L 447.962624 55.297205 
" style="fill:none;stroke:#ff7f0e;stroke-width:3;"/>
    <path clip-path="url(#p221b9fc372)" d="M 478.784258 48.573465 
L 478.784258 47.70714 
" style="fill:none;stroke:#ff7f0e;stroke-width:3;"/>
    <path clip-path="url(#p221b9fc372)" d="M 509.605892 83.506646 
L 509.605892 80.416281 
" style="fill:none;stroke:#ff7f0e;stroke-width:3;"/>
    <path clip-path="url(#p221b9fc372)" d="M 540.427526 64.274837 
L 540.427526 63.035326 
" style="fill:none;stroke:#ff7f0e;stroke-width:3;"/>
    <path clip-path="url(#p221b9fc372)" d="M 571.24916 81.676179 
L 571.24916 79.64921 
" style="fill:none;stroke:#ff7f0e;stroke-width:3;"/>
    <path clip-path="url(#p221b9fc372)" d="M 602.070794 59.545045 
L 602.070794 58.627419 
" style="fill:none;stroke:#ff7f0e;stroke-width:3;"/>
   </g>
   <g id="LineCollection_3">
    <path clip-path="url(#p221b9fc372)" d="M 144.677745 45.354014 
L 144.677745 43.081138 
" style="fill:none;stroke:#2ca02c;stroke-width:3;"/>
    <path clip-path="url(#p221b9fc372)" d="M 175.499379 85.97879 
L 175.499379 82.954281 
" style="fill:none;stroke:#2ca02c;stroke-width:3;"/>
    <path clip-path="url(#p221b9fc372)" d="M 206.321013 75.291088 
L 206.321013 73.103687 
" style="fill:none;stroke:#2ca02c;stroke-width:3;"/>
    <path clip-path="url(#p221b9fc372)" d="M 237.142647 79.842385 
L 237.142647 77.303263 
" style="fill:none;stroke:#2ca02c;stroke-width:3;"/>
    <path clip-path="url(#p221b9fc372)" d="M 267.964281 65.698073 
L 267.964281 64.594822 
" style="fill:none;stroke:#2ca02c;stroke-width:3;"/>
    <path clip-path="url(#p221b9fc372)" d="M 298.785915 102.74828 
L 298.785915 99.188922 
" style="fill:none;stroke:#2ca02c;stroke-width:3;"/>
    <path clip-path="url(#p221b9fc372)" d="M 329.607549 75.115693 
L 329.607549 71.979335 
" style="fill:none;stroke:#2ca02c;stroke-width:3;"/>
    <path clip-path="url(#p221b9fc372)" d="M 360.429183 75.222035 
L 360.429183 74.343655 
" style="fill:none;stroke:#2ca02c;stroke-width:3;"/>
    <path clip-path="url(#p221b9fc372)" d="M 391.250817 66.398014 
L 391.250817 64.488493 
" style="fill:none;stroke:#2ca02c;stroke-width:3;"/>
    <path clip-path="url(#p221b9fc372)" d="M 422.072451 68.794857 
L 422.072451 66.71986 
" style="fill:none;stroke:#2ca02c;stroke-width:3;"/>
    <path clip-path="url(#p221b9fc372)" d="M 452.894085 53.201548 
L 452.894085 51.143689 
" style="fill:none;stroke:#2ca02c;stroke-width:3;"/>
    <path clip-path="url(#p221b9fc372)" d="M 483.715719 48.57181 
L 483.715719 46.644209 
" style="fill:none;stroke:#2ca02c;stroke-width:3;"/>
    <path clip-path="url(#p221b9fc372)" d="M 514.537353 72.71339 
L 514.537353 68.429218 
" style="fill:none;stroke:#2ca02c;stroke-width:3;"/>
    <path clip-path="url(#p221b9fc372)" d="M 545.358987 63.396295 
L 545.358987 61.691087 
" style="fill:none;stroke:#2ca02c;stroke-width:3;"/>
    <path clip-path="url(#p221b9fc372)" d="M 576.180621 84.302303 
L 576.180621 82.675439 
" style="fill:none;stroke:#2ca02c;stroke-width:3;"/>
    <path clip-path="url(#p221b9fc372)" d="M 607.002255 62.135581 
L 607.002255 61.019303 
" style="fill:none;stroke:#2ca02c;stroke-width:3;"/>
   </g>
   <g id="LineCollection_4">
    <path clip-path="url(#p221b9fc372)" d="M 149.609206 46.144466 
L 149.609206 44.365064 
" style="fill:none;stroke:#d62728;stroke-width:3;"/>
    <path clip-path="url(#p221b9fc372)" d="M 180.43084 58.249475 
L 180.43084 57.168241 
" style="fill:none;stroke:#d62728;stroke-width:3;"/>
    <path clip-path="url(#p221b9fc372)" d="M 211.252474 54.676919 
L 211.252474 53.424377 
" style="fill:none;stroke:#d62728;stroke-width:3;"/>
    <path clip-path="url(#p221b9fc372)" d="M 242.074108 69.052628 
L 242.074108 67.505475 
" style="fill:none;stroke:#d62728;stroke-width:3;"/>
    <path clip-path="url(#p221b9fc372)" d="M 272.895742 53.339337 
L 272.895742 52.742375 
" style="fill:none;stroke:#d62728;stroke-width:3;"/>
    <path clip-path="url(#p221b9fc372)" d="M 303.717376 60.76027 
L 303.717376 58.787937 
" style="fill:none;stroke:#d62728;stroke-width:3;"/>
    <path clip-path="url(#p221b9fc372)" d="M 334.53901 64.433854 
L 334.53901 62.450344 
" style="fill:none;stroke:#d62728;stroke-width:3;"/>
    <path clip-path="url(#p221b9fc372)" d="M 365.360644 55.036321 
L 365.360644 54.257416 
" style="fill:none;stroke:#d62728;stroke-width:3;"/>
    <path clip-path="url(#p221b9fc372)" d="M 396.182278 59.195315 
L 396.182278 57.850592 
" style="fill:none;stroke:#d62728;stroke-width:3;"/>
    <path clip-path="url(#p221b9fc372)" d="M 427.003913 57.229339 
L 427.003913 55.443415 
" style="fill:none;stroke:#d62728;stroke-width:3;"/>
    <path clip-path="url(#p221b9fc372)" d="M 457.825547 67.303831 
L 457.825547 64.831543 
" style="fill:none;stroke:#d62728;stroke-width:3;"/>
    <path clip-path="url(#p221b9fc372)" d="M 488.647181 49.688518 
L 488.647181 47.646888 
" style="fill:none;stroke:#d62728;stroke-width:3;"/>
    <path clip-path="url(#p221b9fc372)" d="M 519.468815 86.132195 
L 519.468815 82.88796 
" style="fill:none;stroke:#d62728;stroke-width:3;"/>
    <path clip-path="url(#p221b9fc372)" d="M 550.290449 54.785141 
L 550.290449 54.104157 
" style="fill:none;stroke:#d62728;stroke-width:3;"/>
    <path clip-path="url(#p221b9fc372)" d="M 581.112083 48.229264 
L 581.112083 46.804757 
" style="fill:none;stroke:#d62728;stroke-width:3;"/>
    <path clip-path="url(#p221b9fc372)" d="M 611.933717 50.807772 
L 611.933717 49.230848 
" style="fill:none;stroke:#d62728;stroke-width:3;"/>
   </g>
   <g id="LineCollection_5">
    <path clip-path="url(#p221b9fc372)" d="M 154.540667 45.022251 
L 154.540667 44.717541 
" style="fill:none;stroke:#7f7f7f;stroke-width:3;"/>
    <path clip-path="url(#p221b9fc372)" d="M 185.362301 63.228395 
L 185.362301 61.858008 
" style="fill:none;stroke:#7f7f7f;stroke-width:3;"/>
    <path clip-path="url(#p221b9fc372)" d="M 216.183936 56.651018 
L 216.183936 55.550761 
" style="fill:none;stroke:#7f7f7f;stroke-width:3;"/>
    <path clip-path="url(#p221b9fc372)" d="M 247.00557 58.98778 
L 247.00557 58.195115 
" style="fill:none;stroke:#7f7f7f;stroke-width:3;"/>
    <path clip-path="url(#p221b9fc372)" d="M 277.827204 47.109507 
L 277.827204 46.842968 
" style="fill:none;stroke:#7f7f7f;stroke-width:3;"/>
    <path clip-path="url(#p221b9fc372)" d="M 308.648838 69.037645 
L 308.648838 67.603955 
" style="fill:none;stroke:#7f7f7f;stroke-width:3;"/>
    <path clip-path="url(#p221b9fc372)" d="M 339.470472 50.278432 
L 339.470472 49.886738 
" style="fill:none;stroke:#7f7f7f;stroke-width:3;"/>
    <path clip-path="url(#p221b9fc372)" d="M 370.292106 48.781388 
L 370.292106 48.316574 
" style="fill:none;stroke:#7f7f7f;stroke-width:3;"/>
    <path clip-path="url(#p221b9fc372)" d="M 401.11374 56.169055 
L 401.11374 55.50304 
" style="fill:none;stroke:#7f7f7f;stroke-width:3;"/>
    <path clip-path="url(#p221b9fc372)" d="M 431.935374 54.819479 
L 431.935374 54.195064 
" style="fill:none;stroke:#7f7f7f;stroke-width:3;"/>
    <path clip-path="url(#p221b9fc372)" d="M 462.757008 55.006987 
L 462.757008 54.520279 
" style="fill:none;stroke:#7f7f7f;stroke-width:3;"/>
    <path clip-path="url(#p221b9fc372)" d="M 493.578642 46.944032 
L 493.578642 46.558342 
" style="fill:none;stroke:#7f7f7f;stroke-width:3;"/>
    <path clip-path="url(#p221b9fc372)" d="M 524.400276 50.926698 
L 524.400276 50.235217 
" style="fill:none;stroke:#7f7f7f;stroke-width:3;"/>
    <path clip-path="url(#p221b9fc372)" d="M 555.22191 52.224509 
L 555.22191 51.835012 
" style="fill:none;stroke:#7f7f7f;stroke-width:3;"/>
    <path clip-path="url(#p221b9fc372)" d="M 586.043544 53.01283 
L 586.043544 52.650093 
" style="fill:none;stroke:#7f7f7f;stroke-width:3;"/>
    <path clip-path="url(#p221b9fc372)" d="M 616.865178 51.93442 
L 616.865178 51.519747 
" style="fill:none;stroke:#7f7f7f;stroke-width:3;"/>
   </g>
   <g id="patch_83">
    <path d="M 108 189 
L 108 25.92 
" style="fill:none;stroke:#000000;stroke-linecap:square;stroke-linejoin:miter;stroke-width:0.8;"/>
   </g>
   <g id="patch_84">
    <path d="M 643.68 189 
L 643.68 25.92 
" style="fill:none;stroke:#000000;stroke-linecap:square;stroke-linejoin:miter;stroke-width:0.8;"/>
   </g>
   <g id="patch_85">
    <path d="M 108 189 
L 643.68 189 
" style="fill:none;stroke:#000000;stroke-linecap:square;stroke-linejoin:miter;stroke-width:0.8;"/>
   </g>
   <g id="patch_86">
    <path d="M 108 25.92 
L 643.68 25.92 
" style="fill:none;stroke:#000000;stroke-linecap:square;stroke-linejoin:miter;stroke-width:0.8;"/>
   </g>
   <g id="text_22">
    <!-- performance on common corruptions -->
    <g transform="translate(208.165781 19.92)scale(0.18 -0.18)">
     <use xlink:href="#DejaVuSans-112"/>
     <use x="63.476562" xlink:href="#DejaVuSans-101"/>
     <use x="125" xlink:href="#DejaVuSans-114"/>
     <use x="166.113281" xlink:href="#DejaVuSans-102"/>
     <use x="201.318359" xlink:href="#DejaVuSans-111"/>
     <use x="262.5" xlink:href="#DejaVuSans-114"/>
     <use x="301.863281" xlink:href="#DejaVuSans-109"/>
     <use x="399.275391" xlink:href="#DejaVuSans-97"/>
     <use x="460.554688" xlink:href="#DejaVuSans-110"/>
     <use x="523.933594" xlink:href="#DejaVuSans-99"/>
     <use x="578.914062" xlink:href="#DejaVuSans-101"/>
     <use x="640.4375" xlink:href="#DejaVuSans-32"/>
     <use x="672.224609" xlink:href="#DejaVuSans-111"/>
     <use x="733.40625" xlink:href="#DejaVuSans-110"/>
     <use x="796.785156" xlink:href="#DejaVuSans-32"/>
     <use x="828.572266" xlink:href="#DejaVuSans-99"/>
     <use x="883.552734" xlink:href="#DejaVuSans-111"/>
     <use x="944.734375" xlink:href="#DejaVuSans-109"/>
     <use x="1042.146484" xlink:href="#DejaVuSans-109"/>
     <use x="1139.558594" xlink:href="#DejaVuSans-111"/>
     <use x="1200.740234" xlink:href="#DejaVuSans-110"/>
     <use x="1264.119141" xlink:href="#DejaVuSans-32"/>
     <use x="1295.90625" xlink:href="#DejaVuSans-99"/>
     <use x="1350.886719" xlink:href="#DejaVuSans-111"/>
     <use x="1412.068359" xlink:href="#DejaVuSans-114"/>
     <use x="1451.431641" xlink:href="#DejaVuSans-114"/>
     <use x="1492.544922" xlink:href="#DejaVuSans-117"/>
     <use x="1555.923828" xlink:href="#DejaVuSans-112"/>
     <use x="1619.400391" xlink:href="#DejaVuSans-116"/>
     <use x="1658.609375" xlink:href="#DejaVuSans-105"/>
     <use x="1686.392578" xlink:href="#DejaVuSans-111"/>
     <use x="1747.574219" xlink:href="#DejaVuSans-110"/>
     <use x="1810.953125" xlink:href="#DejaVuSans-115"/>
    </g>
   </g>
  </g>
  <g id="axes_2">
   <g id="legend_1">
    <g id="patch_87">
     <path d="M 663.222656 148.005937 
L 767.1 148.005937 
Q 770.1 148.005937 770.1 145.005937 
L 770.1 36.42 
Q 770.1 33.42 767.1 33.42 
L 663.222656 33.42 
Q 660.222656 33.42 660.222656 36.42 
L 660.222656 145.005937 
Q 660.222656 148.005937 663.222656 148.005937 
z
" style="fill:#ffffff;opacity:0.8;stroke:#cccccc;stroke-linejoin:miter;"/>
    </g>
    <g id="patch_88">
     <path d="M 666.222656 50.817656 
L 696.222656 50.817656 
L 696.222656 40.317656 
L 666.222656 40.317656 
z
" style="fill:#aec7e8;"/>
    </g>
    <g id="text_23">
     <!-- none -->
     <g transform="translate(708.222656 50.817656)scale(0.15 -0.15)">
      <use xlink:href="#DejaVuSans-110"/>
      <use x="63.378906" xlink:href="#DejaVuSans-111"/>
      <use x="124.560547" xlink:href="#DejaVuSans-110"/>
      <use x="187.939453" xlink:href="#DejaVuSans-101"/>
     </g>
    </g>
    <g id="patch_89">
     <path d="M 666.222656 72.834844 
L 696.222656 72.834844 
L 696.222656 62.334844 
L 666.222656 62.334844 
z
" style="fill:#ffbb78;"/>
    </g>
    <g id="text_24">
     <!-- neural -->
     <g transform="translate(708.222656 72.834844)scale(0.15 -0.15)">
      <use xlink:href="#DejaVuSans-110"/>
      <use x="63.378906" xlink:href="#DejaVuSans-101"/>
      <use x="124.902344" xlink:href="#DejaVuSans-117"/>
      <use x="188.28125" xlink:href="#DejaVuSans-114"/>
      <use x="229.394531" xlink:href="#DejaVuSans-97"/>
      <use x="290.673828" xlink:href="#DejaVuSans-108"/>
     </g>
    </g>
    <g id="patch_90">
     <path d="M 666.222656 94.852031 
L 696.222656 94.852031 
L 696.222656 84.352031 
L 666.222656 84.352031 
z
" style="fill:#98df8a;"/>
    </g>
    <g id="text_25">
     <!-- shuffle -->
     <g transform="translate(708.222656 94.852031)scale(0.15 -0.15)">
      <use xlink:href="#DejaVuSans-115"/>
      <use x="52.099609" xlink:href="#DejaVuSans-104"/>
      <use x="115.478516" xlink:href="#DejaVuSans-117"/>
      <use x="178.857422" xlink:href="#DejaVuSans-102"/>
      <use x="214.0625" xlink:href="#DejaVuSans-102"/>
      <use x="249.267578" xlink:href="#DejaVuSans-108"/>
      <use x="277.050781" xlink:href="#DejaVuSans-101"/>
     </g>
    </g>
    <g id="patch_91">
     <path d="M 666.222656 116.869219 
L 696.222656 116.869219 
L 696.222656 106.369219 
L 666.222656 106.369219 
z
" style="fill:#ff9896;"/>
    </g>
    <g id="text_26">
     <!-- blur -->
     <g transform="translate(708.222656 116.869219)scale(0.15 -0.15)">
      <use xlink:href="#DejaVuSans-98"/>
      <use x="63.476562" xlink:href="#DejaVuSans-108"/>
      <use x="91.259766" xlink:href="#DejaVuSans-117"/>
      <use x="154.638672" xlink:href="#DejaVuSans-114"/>
     </g>
    </g>
    <g id="patch_92">
     <path d="M 666.222656 138.886406 
L 696.222656 138.886406 
L 696.222656 128.386406 
L 666.222656 128.386406 
z
" style="fill:#c7c7c7;"/>
    </g>
    <g id="text_27">
     <!-- augmix -->
     <g transform="translate(708.222656 138.886406)scale(0.15 -0.15)">
      <use xlink:href="#DejaVuSans-97"/>
      <use x="61.279297" xlink:href="#DejaVuSans-117"/>
      <use x="124.658203" xlink:href="#DejaVuSans-103"/>
      <use x="188.134766" xlink:href="#DejaVuSans-109"/>
      <use x="285.546875" xlink:href="#DejaVuSans-105"/>
      <use x="313.330078" xlink:href="#DejaVuSans-120"/>
     </g>
    </g>
   </g>
  </g>
 </g>
 <defs>
  <clipPath id="p221b9fc372">
   <rect height="163.08" width="535.68" x="108" y="25.92"/>
  </clipPath>
 </defs>
</svg>
